<svg width="40" height="39" viewBox="0 0 40 39" fill="none" xmlns="http://www.w3.org/2000/svg">
<path fill-rule="evenodd" clip-rule="evenodd" d="M4.15625 19.5001C4.15625 19.1769 4.28465 18.8669 4.51321 18.6383C4.74177 18.4098 5.05177 18.2814 5.375 18.2814L31.6837 18.2814L21.5762 8.17387C21.4565 8.06229 21.3605 7.92774 21.2939 7.77824C21.2272 7.62874 21.1914 7.46736 21.1885 7.30372C21.1856 7.14007 21.2158 6.97753 21.277 6.82577C21.3383 6.67402 21.4296 6.53616 21.5453 6.42043C21.661 6.3047 21.7989 6.21346 21.9507 6.15217C22.1024 6.09087 22.265 6.06077 22.4286 6.06366C22.5922 6.06654 22.7536 6.10236 22.9031 6.16897C23.0526 6.23558 23.1872 6.33162 23.2987 6.45137L35.4862 18.6389C35.7145 18.8674 35.8427 19.1771 35.8427 19.5001C35.8427 19.8231 35.7145 20.1329 35.4862 20.3614L23.2987 32.5489C23.1872 32.6686 23.0526 32.7646 22.9031 32.8313C22.7536 32.8979 22.5922 32.9337 22.4286 32.9366C22.265 32.9395 22.1024 32.9094 21.9507 32.8481C21.7989 32.7868 21.661 32.6955 21.5453 32.5798C21.4296 32.4641 21.3383 32.3262 21.277 32.1745C21.2158 32.0227 21.1856 31.8602 21.1885 31.6965C21.1914 31.5329 21.2272 31.3715 21.2939 31.222C21.3605 31.0725 21.4565 30.9379 21.5762 30.8264L31.6837 20.7189L5.375 20.7189C5.05177 20.7189 4.74177 20.5905 4.51321 20.3619C4.28465 20.1333 4.15625 19.8233 4.15625 19.5001Z" fill="black"/>
</svg>
