<svg width="24" height="24" viewBox="0 0 24 24" fill="none" xmlns="http://www.w3.org/2000/svg">
<path fill-rule="evenodd" clip-rule="evenodd" d="M2.25 12.0001C2.25 11.8012 2.32902 11.6104 2.46967 11.4698C2.61032 11.3291 2.80109 11.2501 3 11.2501H19.19L12.97 5.03009C12.8963 4.96143 12.8372 4.87863 12.7962 4.78663C12.7552 4.69463 12.7332 4.59532 12.7314 4.49461C12.7296 4.39391 12.7482 4.29388 12.7859 4.20049C12.8236 4.10711 12.8797 4.02227 12.951 3.95105C13.0222 3.87983 13.107 3.82369 13.2004 3.78597C13.2938 3.74825 13.3938 3.72972 13.4945 3.7315C13.5952 3.73328 13.6945 3.75532 13.7865 3.79631C13.8785 3.8373 13.9613 3.8964 14.03 3.97009L21.53 11.4701C21.6705 11.6107 21.7493 11.8013 21.7493 12.0001C21.7493 12.1988 21.6705 12.3895 21.53 12.5301L14.03 20.0301C13.9613 20.1038 13.8785 20.1629 13.7865 20.2039C13.6945 20.2449 13.5952 20.2669 13.4945 20.2687C13.3938 20.2705 13.2938 20.2519 13.2004 20.2142C13.107 20.1765 13.0222 20.1203 12.951 20.0491C12.8797 19.9779 12.8236 19.8931 12.7859 19.7997C12.7482 19.7063 12.7296 19.6063 12.7314 19.5056C12.7332 19.4049 12.7552 19.3056 12.7962 19.2136C12.8372 19.1216 12.8963 19.0388 12.97 18.9701L19.19 12.7501H3C2.80109 12.7501 2.61032 12.6711 2.46967 12.5304C2.32902 12.3898 2.25 12.199 2.25 12.0001Z" fill="white"/>
</svg>
