<svg width="17" height="17" viewBox="0 0 17 17" fill="none" xmlns="http://www.w3.org/2000/svg"><path fill-rule="evenodd" clip-rule="evenodd" d="M8.5 2C8.63261 2 8.75978 2.05268 8.85355 2.14645C8.94732 2.24021 9 2.36739 9 2.5V13.2933L13.1467 9.14667C13.1924 9.09754 13.2476 9.05814 13.309 9.03081C13.3703 9.00348 13.4365 8.98879 13.5036 8.98761C13.5708 8.98642 13.6375 8.99877 13.6997 9.02392C13.762 9.04907 13.8185 9.08649 13.866 9.13397C13.9135 9.18145 13.9509 9.23801 13.9761 9.30027C14.0012 9.36253 14.0136 9.42921 14.0124 9.49635C14.0112 9.56348 13.9965 9.62969 13.9692 9.69103C13.9419 9.75236 13.9025 9.80756 13.8533 9.85333L8.85333 14.8533C8.75958 14.947 8.6325 14.9996 8.5 14.9996C8.3675 14.9996 8.24041 14.947 8.14666 14.8533L3.14666 9.85333C3.09754 9.80756 3.05814 9.75236 3.03081 9.69103C3.00348 9.62969 2.98879 9.56348 2.9876 9.49635C2.98642 9.42921 2.99877 9.36253 3.02392 9.30027C3.04906 9.23801 3.08649 9.18145 3.13397 9.13397C3.18145 9.08649 3.23801 9.04907 3.30027 9.02392C3.36253 8.99877 3.42921 8.98642 3.49635 8.98761C3.56348 8.98879 3.62969 9.00348 3.69102 9.03081C3.75236 9.05814 3.80756 9.09754 3.85333 9.14667L8 13.2933V2.5C8 2.36739 8.05268 2.24021 8.14644 2.14645C8.24021 2.05268 8.36739 2 8.5 2Z" fill="white" /></svg>